/* XPM */
static const char *rocket16x16[] = {
/* columns rows colors chars-per-pixel */
"16 16 55 1 ",
"  c #3A1810",
". c #3D261F",
"X c #2F2F2F",
"o c #40251B",
"O c #7F4632",
"+ c #734B3E",
"@ c #636363",
"# c #9D0909",
"$ c #B02020",
"% c #E02222",
"& c #E12525",
"* c #E22828",
"= c #9B441F",
"- c #E2592B",
"; c #A75770",
": c #8B6767",
"> c #D85474",
", c #F7B061",
"< c #5D0A89",
"1 c #592FA7",
"2 c #8F8A8A",
"3 c #988E8A",
"4 c #9A908D",
"5 c #ADADAD",
"6 c #DAAF8B",
"7 c #DCB8A4",
"8 c #DBBCB3",
"9 c #E0B6B6",
"0 c #E7B8BC",
"q c #F5B1B1",
"w c #F6B9B9",
"e c #FEE093",
"r c #E1B6CF",
"t c #C3C3C3",
"y c #DFC0C0",
"u c #D3D3D3",
"i c #DBDBDB",
"p c #DFDCDB",
"a c #DEDEDE",
"s c #ECCECE",
"d c #ECCFCF",
"f c #F7C0C0",
"g c #FEC1C1",
"h c #F7CEC7",
"j c #ECD1CE",
"k c #FCEDD9",
"l c #E6E6E6",
"z c #E7E7E7",
"x c #ECEAE9",
"c c #FDF2E7",
"v c #FAFAFA",
"b c #FCF9F9",
"n c #FCFCFC",
"m c #FEFDFD",
"M c #000000",
/* pixels */
"MMMMMMMMMMMMMMli",
"MMMMMMMMMMMMMt@M",
"MMMMMMMMMMMM5XlM",
"MMMMMMMMMMMq$uMM",
"MMMMMMMMMMw%dMMM",
"MMMMMMMMMf&dMMMM",
"MMMMMMMMh*dMMMMM",
"MMMMMMa9-jMMMMMM",
"MMMMMM:#yMMMMMMM",
"MMMMg>12vMMMMMMM",
"MMMMr<;MMMMMMMMM",
"MMMc80bMMMMMMMMM",
"Mx7ekMMMMMMMMMMM",
"3+,6MMMMMMMMMMMM",
".=OpMMMMMMMMMMMM",
" o4MMMMMMMMMMMMM"
};
