/* XPM */
static const char *rocket64x64[] = {
/* columns rows colors chars-per-pixel */
"64 63 201 2 ",
"   c #010101",
".  c #0B0B0B",
"X  c #0F0000",
"o  c #1A0000",
"O  c #1B1B1B",
"+  c #141414",
"@  c #2D0000",
"#  c #360000",
"$  c #2D140D",
"%  c #37170D",
"&  c #2C1710",
"*  c #2E1B14",
"=  c #321C14",
"-  c #391E14",
";  c #23001C",
":  c #3A231C",
">  c #35221C",
",  c #242424",
"<  c #2B2B2B",
"1  c #2C2525",
"2  c #3B2A24",
"3  c #343434",
"4  c #420000",
"5  c #5D0F0F",
"6  c #491B0E",
"7  c #5A1A0D",
"8  c #4A1A16",
"9  c #640E0E",
"0  c #7F0808",
"q  c #462317",
"w  c #532517",
"e  c #52250D",
"r  c #67280B",
"t  c #75341E",
"y  c #753613",
"u  c #66002D",
"i  c #452C23",
"p  c #4D352D",
"a  c #4C3B36",
"s  c #4A3A34",
"d  c #6C3726",
"f  c #59443E",
"g  c #7C422F",
"h  c #41006B",
"j  c #454545",
"k  c #574743",
"l  c #565656",
"z  c #675A55",
"x  c #63534D",
"c  c #6F625D",
"v  c #79635C",
"b  c #686868",
"n  c #776964",
"m  c #7B7B7B",
"M  c #810808",
"N  c #840000",
"B  c #9F0000",
"V  c #96000B",
"C  c #8E001A",
"Z  c #A90000",
"A  c #A60909",
"S  c #B50100",
"D  c #B80000",
"F  c #B90808",
"G  c #A41010",
"H  c #843D13",
"J  c #923B21",
"K  c #DC0808",
"L  c #EB0404",
"P  c #EA0808",
"I  c #E70303",
"U  c #F30606",
"Y  c #F60808",
"T  c #FE1616",
"R  c #FF1919",
"E  c #FE1A16",
"W  c #EC2607",
"Q  c #DA2C2C",
"!  c #DA3838",
"~  c #FF2323",
"^  c #97401A",
"/  c #A04615",
"(  c #914630",
")  c #B74C29",
"_  c #AC5A3E",
"`  c #CE5D2D",
"'  c #E15C35",
"]  c #D66138",
"[  c #EE612E",
"{  c #FE6F3E",
"}  c #E4653A",
"|  c #BC1248",
" . c #AC2E69",
".. c #C4144A",
"X. c #C83561",
"o. c #8F5656",
"O. c #AA5B5B",
"+. c #A85656",
"@. c #BD7158",
"#. c #897D79",
"$. c #957C73",
"%. c #83746F",
"&. c #AE6565",
"*. c #B26C6C",
"=. c #B77878",
"-. c #DB4949",
";. c #DC5959",
":. c #CD4444",
">. c #FA5959",
",. c #E47647",
"<. c #FD7949",
"1. c #C36464",
"2. c #DD6565",
"3. c #CE7974",
"4. c #DF7771",
"5. c #E17E7E",
"6. c #B49A00",
"7. c #EA9F09",
"8. c #EFA704",
"9. c #FEE816",
"0. c #8F837F",
"q. c #BAAE7F",
"w. c #F8864C",
"e. c #FC8C54",
"r. c #F38A5B",
"t. c #FD9757",
"y. c #ED895A",
"u. c #FFAA56",
"i. c #FFB95C",
"p. c #C78E7C",
"a. c #E49377",
"s. c #FDAC69",
"d. c #FFB361",
"f. c #F4B878",
"g. c #FFCB6C",
"h. c #FFD372",
"j. c #FFDC7A",
"k. c #F0D06F",
"l. c #FFEA7A",
"z. c #0100AA",
"x. c #3F1BBF",
"c. c #3909B6",
"v. c #5B0986",
"b. c #0D03DD",
"n. c #1103D9",
"m. c #0A07E6",
"M. c #1414FD",
"N. c #140EE2",
"B. c #6D6DF2",
"V. c #82618F",
"C. c #8C8C8C",
"Z. c #8A8583",
"A. c #9A908C",
"S. c #9B9998",
"D. c #BE8685",
"F. c #A49B98",
"G. c #A38A81",
"H. c #AAA29F",
"J. c #ABA9A9",
"K. c #B8A9A4",
"L. c #BDBBBB",
"P. c #B6B4B4",
"I. c #CC8D85",
"U. c #E38484",
"Y. c #D1A68C",
"T. c #FEBA83",
"R. c #EDAA94",
"E. c #C2BCBA",
"W. c #FBBABA",
"Q. c #E9BDA9",
"!. c #FAC08A",
"~. c #FEDC84",
"^. c #FDDA92",
"/. c #FEE489",
"(. c #FFFB8C",
"). c #FFF38C",
"_. c #FFF79C",
"`. c #F8D1B8",
"'. c #FFF5A8",
"]. c #FFFCB8",
"[. c #FFF3B8",
"{. c #AEAEEA",
"}. c #C5A9D0",
"|. c #C9C6C6",
" X c #DDDCDC",
".X c #EBCDCD",
"XX c #FED6C4",
"oX c #E8DEDA",
"OX c #FEC5C5",
"+X c #E5E5E4",
"@X c #EDECEC",
"#X c #EEE4E4",
"$X c #F5EBEB",
"%X c #F9EEEE",
"&X c #F5E5E5",
"*X c #F9F2EE",
"=X c #F5F5F5",
"-X c #FBF4F4",
";X c #FFFBF6",
":X c #FEFEFE",
">X c #CCCCF1",
/* pixels */
":X:X:X:X:X:X:X:X:X:X:X:X:X:X:X:X:X:X:X:X:X:X:X:X:X:X:X:X:X:X:X:X:X:X:X:X:X:X:X:X:X:X:X:X:X:X:X:X:X:X:X:X:X:X:X:X:X:X:X:X:X:X:X:X",
":X:X:X:X:X:X:X:X:X:X:X:X:X:X:X:X:X:X:X:X:X:X:X:X:X:X:X:X:X:X:X:X:X:X:X:X:X:X:X:X:X:X:X:X:X:X:X:X:X:X:X:X:X:X:X:X:X:X:X:X=XS.=X:X",
":X:X:X:X:X:X:X:X:X:X:X:X:X:X:X:X:X:X:X:X:X:X:X:X:X:X:X:X:X:X:X:X:X:X:X:X:X:X:X:X:X:X:X:X:X:X:X:X:X:X:X:X:X:X:X:X:X:X:X|.j J.:X:X",
":X:X:X:X:X:X:X:X:X:X:X:X:X:X:X:X:X:X:X:X:X:X:X:X:X:X:X:X:X:X:X:X:X:X:X:X:X:X:X:X:X:X:X:X:X:X:X:X:X:X:X:X:X:X:X:X:X:XZ., l :X:X:X",
":X:X:X:X:X:X:X:X:X:X:X:X:X:X:X:X:X:X:X:X:X:X:X:X:X:X:X:X:X:X:X:X:X:X:X:X:X:X:X:X:X:X:X:X:X:X:X:X:X:X:X:X:X:X:X:X+Xj < O +X:X:X:X",
":X:X:X:X:X:X:X:X:X:X:X:X:X:X:X:X:X:X:X:X:X:X:X:X:X:X:X:X:X:X:X:X:X:X:X:X:X:X:X:X:X:X:X:X:X:X:X:X:X:X:X:X:X:X:XL.O < . P.:X:X:X:X",
":X:X:X:X:X:X:X:X:X:X:X:X:X:X:X:X:X:X:X:X:X:X:X:X:X:X:X:X:X:X:X:X:X:X:X:X:X:X:X:X:X:X:X:X:X:X:X:X:X:X:X:X:X:XC.. < . b :X:X:X:X:X",
":X:X:X:X:X:X:X:X:X:X:X:X:X:X:X:X:X:X:X:X:X:X:X:X:X:X:X:X:X:X:X:X:X:X:X:X:X:X:X:X:X:X:X:X:X:X:X:X:X:X:X:X:Xb . < . 3 =X:X:X:X:X:X",
":X:X:X:X:X:X:X:X:X:X:X:X:X:X:X:X:X:X:X:X:X:X:X:X:X:X:X:X:X:X:X:X:X:X:X:X:X:X:X:X:X:X:X:X:X:X:X:X:X:X:X=Xj . < . +  X:X:X:X:X:X:X",
":X:X:X:X:X:X:X:X:X:X:X:X:X:X:X:X:X:X:X:X:X:X:X:X:X:X:X:X:X:X:X:X:X:X:X:X:X:X:X:X:X:X:X:X:X:X:X:X:X:X@X3 . , .   L.:X:X:X:X:X:X:X",
":X:X:X:X:X:X:X:X:X:X:X:X:X:X:X:X:X:X:X:X:X:X:X:X:X:X:X:X:X:X:X:X:X:X:X:X:X:X:X:X:X:X:X:X:X:X:X:X:X+X< . , .   S.:X:X:X:X:X:X:X:X",
":X:X:X:X:X:X:X:X:X:X:X:X:X:X:X:X:X:X:X:X:X:X:X:X:X:X:X:X:X:X:X:X:X:X:X:X:X:X:X:X:X:X:X:X:X:X:X:X#X1 . O .   m :X:X:X:X:X:X:X:X:X",
":X:X:X:X:X:X:X:X:X:X:X:X:X:X:X:X:X:X:X:X:X:X:X:X:X:X:X:X:X:X:X:X:X:X:X:X:X:X:X:X:X:X:X:X:X:X:X&XQ K 8 .   b :X:X:X:X:X:X:X:X:X:X",
":X:X:X:X:X:X:X:X:X:X:X:X:X:X:X:X:X:X:X:X:X:X:X:X:X:X:X:X:X:X:X:X:X:X:X:X:X:X:X:X:X:X:X:X:X:X$XQ Y T K o l :X:X:X:X:X:X:X:X:X:X:X",
":X:X:X:X:X:X:X:X:X:X:X:X:X:X:X:X:X:X:X:X:X:X:X:X:X:X:X:X:X:X:X:X:X:X:X:X:X:X:X:X:X:X:X:X:X%X! Y T L D o.:X:X:X:X:X:X:X:X:X:X:X:X",
":X:X:X:X:X:X:X:X:X:X:X:X:X:X:X:X:X:X:X:X:X:X:X:X:X:X:X:X:X:X:X:X:X:X:X:X:X:X:X:X:X:X:X:X%X! U T L D +.:X:X:X:X:X:X:X:X:X:X:X:X:X",
":X:X:X:X:X:X:X:X:X:X:X:X:X:X:X:X:X:X:X:X:X:X:X:X:X:X:X:X:X:X:X:X:X:X:X:X:X:X:X:X:X:X:X-X! U T P D O.:X:X:X:X:X:X:X:X:X:X:X:X:X:X",
":X:X:X:X:X:X:X:X:X:X:X:X:X:X:X:X:X:X:X:X:X:X:X:X:X:X:X:X:X:X:X:X:X:X:X:X:X:X:X:X:X:X-X! U T P D O.;X:X:X:X:X:X:X:X:X:X:X:X:X:X:X",
":X:X:X:X:X:X:X:X:X:X:X:X:X:X:X:X:X:X:X:X:X:X:X:X:X:X:X:X:X:X:X:X:X:X:X:X:X:X:X:X:X-X-.U T P D O.;X:X:X:X:X:X:X:X:X:X:X:X:X:X:X:X",
":X:X:X:X:X:X:X:X:X:X:X:X:X:X:X:X:X:X:X:X:X:X:X:X:X:X:X:X:X:X:X:X:X:X:X:X:X:X:X:X-X-.U T P S &.:X:X:X:X:X:X:X:X:X:X:X:X:X:X:X:X:X",
":X:X:X:X:X:X:X:X:X:X:X:X:X:X:X:X:X:X:X:X:X:X:X:X:X:X:X:X:X:X:X:X:X:X:X:X:X:X:X;X-.U T P S &.:X:X:X:X:X:X:X:X:X:X:X:X:X:X:X:X:X:X",
":X:X:X:X:X:X:X:X:X:X:X:X:X:X:X:X:X:X:X:X:X:X:X:X:X:X:X:X:X:X:X:X:X:X:X:X:X:X;X;.U T P S &.:X:X:X:X:X:X:X:X:X:X:X:X:X:X:X:X:X:X:X",
":X:X:X:X:X:X:X:X:X:X:X:X:X:X:X:X:X:X:X:X:X:X:X:X:X:X:X:X:X:X:X:X:X:X:X:X:X;X;.U T P S *.:X:X:X:X:X:X:X:X:X:X:X:X:X:X:X:X:X:X:X:X",
":X:X:X:X:X:X:X:X:X:X:X:X:X:X:X:X:X:X:X:X:X:X:X:X:X:X:X:X:X:X:X:X:X:X:X:X:X;.U T P S *.:X:X:X:X:X:X:X:X:X:X:X:X:X:X:X:X:X:X:X:X:X",
":X:X:X:X:X:X:X:X:X:X:X:X:X:X:X:X:X:X:X:X:X:X:X:X:X:X:X:X:X:X:X:X:X:X:X:X2.U T P S *.:X:X:X:X:X:X:X:X:X:X:X:X:X:X:X:X:X:X:X:X:X:X",
":X:X:X:X:X:X:X:X:X:X:X:X:X:X:X:X:X:X:X:X:X:X:X:X:X:X:X:X:X:X:X:X:X:X:X2.L T P S *.:X:X:X:X:X:X:X:X:X:X:X:X:X:X:X:X:X:X:X:X:X:X:X",
":X:X:X:X:X:X:X:X:X:X:X:X:X:X:X:X:X:X:X:X:X:X:X:X:X:X:X:X:X:X:X:X:X:X4.L T P S =.:X:X:X:X:X:X:X:X:X:X:X:X:X:X:X:X:X:X:X:X:X:X:X:X",
":X:X:X:X:X:X:X:X:X:X:X:X:X:X:X:X:X:X:X:X:X:X:X:X:X:X:X:X:X:X:X:X:Xk.8.E P S =.:X:X:X:X:X:X:X:X:X:X:X:X:X:X:X:X:X:X:X:X:X:X:X:X:X",
":X:X:X:X:X:X:X:X:X:X:X:X:X:X:X:X:X:X:X:X:X:X:X:X:X:X:X:X:X:X:X:X5.W 9.7.S =.:X:X:X:X:X:X:X:X:X:X:X:X:X:X:X:X:X:X:X:X:X:X:X:X:X:X",
":X:X:X:X:X:X:X:X:X:X:X:X:X:X:X:X:X:X:X:X:X:X:X:X:X:X:X:X:X:X:XU.L T W 6.q.:X:X:X:X:X:X:X:X:X:X:X:X:X:X:X:X:X:X:X:X:X:X:X:X:X:X:X",
":X:X:X:X:X:X:X:X:X:X:X:X:X:X:X:X:X:X:X:X:X:X:X:X:X X|.|.P.J.3.L T P S D.:X:X:X:X:X:X:X:X:X:X:X:X:X:X:X:X:X:X:X:X:X:X:X:X:X:X:X:X",
":X:X:X:X:X:X:X:X:X:X:X:X:X:X:X:X:X:X:X:X:X:X:X:XJ.O O O O 9 L T P S D.:X:X:X:X:X:X:X:X:X:X:X:X:X:X:X:X:X:X:X:X:X:X:X:X:X:X:X:X:X",
":X:X:X:X:X:X:X:X:X:X:X:X:X:X:X:X:X:X:X:X:X:X:X:Xb O O O 9 L T F S D.:X:X:X:X:X:X:X:X:X:X:X:X:X:X:X:X:X:X:X:X:X:X:X:X:X:X:X:X:X:X",
":X:X:X:X:X:X:X:X:X:X:X:X:X:X:X:X:X:X:X:X:X:X:X:X:XJ., 5 I T M N o.:X:X:X:X:X:X:X:X:X:X:X:X:X:X:X:X:X:X:X:X:X:X:X:X:X:X:X:X:X:X:X",
":X:X:X:X:X:X:X:X:X:X:X:X:X:X:X:X:X:X:X:X:X:X:X:X:X:XI.I T M 4 # C.:X:X:X:X:X:X:X:X:X:X:X:X:X:X:X:X:X:X:X:X:X:X:X:X:X:X:X:X:X:X:X",
":X:X:X:X:X:X:X:X:X:X:X:X:X:X:X:X:X:X:X:X%X:X:X:X:X}.L T 0 X @   J.:X:X:X:X:X:X:X:X:X:X:X:X:X:X:X:X:X:X:X:X:X:X:X:X:X:X:X:X:X:X:X",
":X:X:X:X:X:X:X:X:X:X:X:X:X:X:X:X:X:X:XW.R >.W.:X{.m...A   k   . +X:X:X:X:X:X:X:X:X:X:X:X:X:X:X:X:X:X:X:X:X:X:X:X:X:X:X:X:X:X:X:X",
":X:X:X:X:X:X:X:X:X:X:X:X:X:X:X:X:X:XOX~ R R R  .m.M.N.; b :XZ.|.:X:X:X:X:X:X:X:X:X:X:X:X:X:X:X:X:X:X:X:X:X:X:X:X:X:X:X:X:X:X:X:X",
":X:X:X:X:X:X:X:X:X:X:X:X:X:X:X:X:X-X~ R R R | m.M.m.z.b :X:X:X:X:X:X:X:X:X:X:X:X:X:X:X:X:X:X:X:X:X:X:X:X:X:X:X:X:X:X:X:X:X:X:X:X",
":X:X:X:X:X:X:X:X:X:X:X:X:X:X:X:X:X:X>.R R | b.M.c.z.V.:X:X:X:X:X:X:X:X:X:X:X:X:X:X:X:X:X:X:X:X:X:X:X:X:X:X:X:X:X:X:X:X:X:X:X:X:X",
":X:X:X:X:X:X:X:X:X:X:X:X:X:X:X:X:X:XW.R ..b.M.v.h u G &X:X:X:X:X:X:X:X:X:X:X:X:X:X:X:X:X:X:X:X:X:X:X:X:X:X:X:X:X:X:X:X:X:X:X:X:X",
":X:X:X:X:X:X:X:X:X:X:X:X:X:X:X:X:X:X:XX.n.M.v.C u B G .X:X:X:X:X:X:X:X:X:X:X:X:X:X:X:X:X:X:X:X:X:X:X:X:X:X:X:X:X:X:X:X:X:X:X:X:X",
":X:X:X:X:X:X:X:X:X:X:X:X:X:X:X:X:X:X>XN.M.v.Z V B G .X:X:X:X:X:X:X:X:X:X:X:X:X:X:X:X:X:X:X:X:X:X:X:X:X:X:X:X:X:X:X:X:X:X:X:X:X:X",
":X:X:X:X:X:X:X:X:X:X:X:X:X:X:X:X:X:XB.M.v.Z :.1.1..X:X:X:X:X:X:X:X:X:X:X:X:X:X:X:X:X:X:X:X:X:X:X:X:X:X:X:X:X:X:X:X:X:X:X:X:X:X:X",
":X:X:X:X:X:X:X:X:X:X:X:X:X:X:X:X;XXXY.x.Z 2.:X:X:X:X:X:X:X:X:X:X:X:X:X:X:X:X:X:X:X:X:X:X:X:X:X:X:X:X:X:X:X:X:X:X:X:X:X:X:X:X:X:X",
":X:X:X:X:X:X:X:X:X:X:X:X:X:X:X`.T.j.j.3.2.:X:X:X:X:X:X:X:X:X:X:X:X:X:X:X:X:X:X:X:X:X:X:X:X:X:X:X:X:X:X:X:X:X:X:X:X:X:X:X:X:X:X:X",
":X:X:X:X:X:X:X:X:X:X:X:X:X;X`.f.^./.!.&X:X:X:X:X:X:X:X:X:X:X:X:X:X:X:X:X:X:X:X:X:X:X:X:X:X:X:X:X:X:X:X:X:X:X:X:X:X:X:X:X:X:X:X:X",
":X:X:X:X:X:X:X:X:X:X:X;XXX!./.'._.^.*X:X:X:X:X:X:X:X:X:X:X:X:X:X:X:X:X:X:X:X:X:X:X:X:X:X:X:X:X:X:X:X:X:X:X:X:X:X:X:X:X:X:X:X:X:X",
":X:X:X:X:X:X:X:X$X@X%XI.e.~.].[.~.Q.:X:X:X:X:X:X:X:X:X:X:X:X:X:X:X:X:X:X:X:X:X:X:X:X:X:X:X:X:X:X:X:X:X:X:X:X:X:X:X:X:X:X:X:X:X:X",
":X:X:X:X:X:X=X|.F.$.p.y.h.'.]._.T.;X:X:X:X:X:X:X:X:X:X:X:X:X:X:X:X:X:X:X:X:X:X:X:X:X:X:X:X:X:X:X:X:X:X:X:X:X:X:X:X:X:X:X:X:X:X:X",
":X:X:X:X:X XE.J.G.@.r.h.(._./.s.XX:X:X:X:X:X:X:X:X:X:X:X:X:X:X:X:X:X:X:X:X:X:X:X:X:X:X:X:X:X:X:X:X:X:X:X:X:X:X:X:X:X:X:X:X:X:X:X",
"=X+X+X+XL.0.#.$.@.r.g.(.(.).s.R.*X:X:X:X:X:X:X:X:X:X:X:X:X:X:X:X:X:X:X:X:X:X:X:X:X:X:X:X:X:X:X:X:X:X:X:X:X:X:X:X:X:X:X:X:X:X:X:X",
"|.J.H.A.n a p g ,.d.l.(.h.t.a.oX:X:X:X:X:X:X:X:X:X:X:X:X:X:X:X:X:X:X:X:X:X:X:X:X:X:X:X:X:X:X:X:X:X:X:X:X:X:X:X:X:X:X:X:X:X:X:X:X",
"F.%.n z a > q ) t.g.g.i.w._ K.=X:X:X:X:X:X:X:X:X:X:X:X:X:X:X:X:X:X:X:X:X:X:X:X:X:X:X:X:X:X:X:X:X:X:X:X:X:X:X:X:X:X:X:X:X:X:X:X:X",
"Z.x f 2 = i t } t.u.u.,.( v |.:X:X:X:X:X:X:X:X:X:X:X:X:X:X:X:X:X:X:X:X:X:X:X:X:X:X:X:X:X:X:X:X:X:X:X:X:X:X:X:X:X:X:X:X:X:X:X:X:X",
"c a i = - t ) <.e.w.` d k A.@X:X:X:X:X:X:X:X:X:X:X:X:X:X:X:X:X:X:X:X:X:X:X:X:X:X:X:X:X:X:X:X:X:X:X:X:X:X:X:X:X:X:X:X:X:X:X:X:X:X",
"k 2 = $ 6 ^ [ { ' ( w p #.oX:X:X:X:X:X:X:X:X:X:X:X:X:X:X:X:X:X:X:X:X:X:X:X:X:X:X:X:X:X:X:X:X:X:X:X:X:X:X:X:X:X:X:X:X:X:X:X:X:X:X",
"2 2 = % e / ` ] J w q z L.:X:X:X:X:X:X:X:X:X:X:X:X:X:X:X:X:X:X:X:X:X:X:X:X:X:X:X:X:X:X:X:X:X:X:X:X:X:X:X:X:X:X:X:X:X:X:X:X:X:X:X",
"& & $ 6 r y H t q = a Z. X:X:X:X:X:X:X:X:X:X:X:X:X:X:X:X:X:X:X:X:X:X:X:X:X:X:X:X:X:X:X:X:X:X:X:X:X:X:X:X:X:X:X:X:X:X:X:X:X:X:X:X",
"= $ % 7 r e q p > s n F.+X:X:X:X:X:X:X:X:X:X:X:X:X:X:X:X:X:X:X:X:X:X:X:X:X:X:X:X:X:X:X:X:X:X:X:X:X:X:X:X:X:X:X:X:X:X:X:X:X:X:X:X",
"= $ 6 7 6 % > i a c A.E.$X:X:X:X:X:X:X:X:X:X:X:X:X:X:X:X:X:X:X:X:X:X:X:X:X:X:X:X:X:X:X:X:X:X:X:X:X:X:X:X:X:X:X:X:X:X:X:X:X:X:X:X",
"$ q 8 % $ & > p z A.P.+X:X:X:X:X:X:X:X:X:X:X:X:X:X:X:X:X:X:X:X:X:X:X:X:X:X:X:X:X:X:X:X:X:X:X:X:X:X:X:X:X:X:X:X:X:X:X:X:X:X:X:X:X",
"$ = $ $ * * 2 k #.|.@X:X:X:X:X:X:X:X:X:X:X:X:X:X:X:X:X:X:X:X:X:X:X:X:X:X:X:X:X:X:X:X:X:X:X:X:X:X:X:X:X:X:X:X:X:X:X:X:X:X:X:X:X:X"
};
