/* XPM */
static const char *rocket32x32[] = {
/* columns rows colors chars-per-pixel */
"32 32 173 2 ",
"   c #101010",
".  c #121212",
"X  c #1A1717",
"o  c #1C1919",
"O  c #1C1C1C",
"+  c #36150E",
"@  c #391A0E",
"#  c #2D1812",
"$  c #2F1913",
"%  c #341A12",
"&  c #341D15",
"*  c #342019",
"=  c #262626",
"-  c #3B3B3B",
";  c #3C3C3C",
":  c #440000",
">  c #460C0C",
",  c #4E180E",
"<  c #4D1F0C",
"1  c #422A1F",
"2  c #542618",
"3  c #79350E",
"4  c #652C15",
"5  c #422820",
"6  c #42322D",
"7  c #433232",
"8  c #503F39",
"9  c #6D3928",
"0  c #51433E",
"q  c #4A015E",
"w  c #584640",
"e  c #575757",
"r  c #5C5C5C",
"t  c #63534D",
"y  c #745347",
"u  c #646464",
"i  c #796D69",
"p  c #727272",
"a  c #940118",
"s  c #A20B0B",
"d  c #BA0D0D",
"f  c #A00F13",
"g  c #B10D33",
"h  c #BB2D2D",
"j  c #B42C3C",
"k  c #D40D0D",
"l  c #DE1B1B",
"z  c #EA0C0C",
"x  c #EB0C0C",
"c  c #EC0C0C",
"v  c #EC0D0D",
"b  c #ED0D0D",
"n  c #EE0D0D",
"m  c #EF0D0D",
"M  c #F00D0D",
"N  c #EE1E1E",
"B  c #FF1919",
"V  c #ED2222",
"C  c #ED2727",
"Z  c #EC2C2C",
"A  c #EC3232",
"S  c #EB3838",
"D  c #FF3434",
"F  c #9D4426",
"G  c #A14A21",
"H  c #EB513E",
"J  c #D7653B",
"K  c #EC6638",
"L  c #B04F4F",
"P  c #BD4D4D",
"I  c #BE4C4C",
"U  c #BF4C4C",
"Y  c #BC4E4E",
"T  c #BD4E4E",
"R  c #BF564B",
"E  c #9F6148",
"W  c #827571",
"Q  c #A87E70",
"!  c #C04949",
"~  c #C0584B",
"^  c #E54747",
"/  c #EB5B46",
"(  c #FB6767",
")  c #FF6464",
"_  c #EFA50D",
"`  c #E98D56",
"'  c #F5A254",
"]  c #FEA85A",
"[  c #EEA368",
"{  c #FDCF73",
"}  c #FFEB7E",
"|  c #3A3994",
" . c #7A0D82",
".. c #700D8A",
"X. c #7B61BB",
"o. c #330DC4",
"O. c #300DC6",
"+. c #0D0DF1",
"@. c #6D67E6",
"#. c #8877DE",
"$. c #8E8E8E",
"%. c #938A88",
"&. c #9F9490",
"*. c #9F9F9F",
"=. c #A09693",
"-. c #A19C9C",
";. c #A3A3A3",
":. c #A7A7A7",
">. c #B9B4B2",
",. c #CB868A",
"<. c #FCBD80",
"1. c #ECB499",
"2. c #FED88A",
"3. c #FFDC8C",
"4. c #F9D89A",
"5. c #FFF494",
"6. c #C5C0BE",
"7. c #F4CBAA",
"8. c #F9D3AC",
"9. c #FFF6AE",
"0. c #C5C2C2",
"q. c #CDC8C7",
"w. c #CACACA",
"e. c #CFCFCF",
"r. c #D1D1D1",
"t. c #D5D5D5",
"y. c #DFD9D7",
"u. c #DFDFDF",
"i. c #E9C7C7",
"p. c #F8C3C4",
"a. c #F0CFCF",
"s. c #EAD2CA",
"d. c #F4D0D0",
"f. c #F5D7D7",
"g. c #FED6D6",
"h. c #F6DCDC",
"j. c #FEE4D4",
"k. c #FEE9DB",
"l. c #E4E2E2",
"z. c #E5E5E5",
"x. c #E6E4E4",
"c. c #ECECEC",
"v. c #EEEDED",
"b. c #EEEEEE",
"n. c #EFEEEE",
"m. c #F7E2E2",
"M. c #F8E7E7",
"N. c #F5E8E8",
"B. c #FAE8E8",
"V. c #F9EBEB",
"C. c #FAEFEF",
"Z. c #F2F2F2",
"A. c #F3F3F3",
"S. c #F5F5F4",
"D. c #F7F7F7",
"F. c #FBF5F5",
"G. c #F9F7F7",
"H. c #FAF7F7",
"J. c #FBFBF2",
"K. c #FAFAF7",
"L. c #FEFAF5",
"P. c #F9F9F9",
"I. c #FAF8F8",
"U. c #FAF8F9",
"Y. c #FBFAFA",
"T. c #FBFBFB",
"R. c #FCFAF9",
"E. c #FCFBFA",
"W. c #FCFCFB",
"Q. c #FDFCFB",
"!. c #FCFCFC",
"~. c #FEFCFC",
"^. c #000000",
/* pixels */
"^.^.^.^.^.^.^.^.^.^.^.^.^.^.^.^.^.^.^.^.^.^.^.^.^.^.^.^.^.^.x.Y.",
"^.^.^.^.^.^.^.^.^.^.^.^.^.^.^.^.^.^.^.^.^.^.^.^.^.^.^.^.^.;.$.^.",
"^.^.^.^.^.^.^.^.^.^.^.^.^.^.^.^.^.^.^.^.^.^.^.^.^.^.^.A.u ; S.^.",
"^.^.^.^.^.^.^.^.^.^.^.^.^.^.^.^.^.^.^.^.^.^.^.^.^.^.u.- O r.^.^.",
"^.^.^.^.^.^.^.^.^.^.^.^.^.^.^.^.^.^.^.^.^.^.^.^.^.e.=   *.^.^.^.",
"^.^.^.^.^.^.^.^.^.^.^.^.^.^.^.^.^.^.^.^.^.^.^.^.w.O   p ^.^.^.^.",
"^.^.^.^.^.^.^.^.^.^.^.^.^.^.^.^.^.^.^.^.^.^.^.d.l > e ^.^.^.^.^.",
"^.^.^.^.^.^.^.^.^.^.^.^.^.^.^.^.^.^.^.^.^.^.f.N x L Y.^.^.^.^.^.",
"^.^.^.^.^.^.^.^.^.^.^.^.^.^.^.^.^.^.^.^.^.h.V x Y Y.^.^.^.^.^.^.",
"^.^.^.^.^.^.^.^.^.^.^.^.^.^.^.^.^.^.^.^.m.C m Y Y.^.^.^.^.^.^.^.",
"^.^.^.^.^.^.^.^.^.^.^.^.^.^.^.^.^.^.^.M.Z m Y Y.^.^.^.^.^.^.^.^.",
"^.^.^.^.^.^.^.^.^.^.^.^.^.^.^.^.^.^.B.A m Y Y.^.^.^.^.^.^.^.^.^.",
"^.^.^.^.^.^.^.^.^.^.^.^.^.^.^.^.^.C.S m Y Y.^.^.^.^.^.^.^.^.^.^.",
"^.^.^.^.^.^.^.^.^.^.^.^.^.^.^.^.J.H m Y Y.^.^.^.^.^.^.^.^.^.^.^.",
"^.^.^.^.^.^.^.^.^.^.^.^.^.^.^.F./ _ R F.^.^.^.^.^.^.^.^.^.^.^.^.",
"^.^.^.^.^.^.^.^.^.^.^.^.t.:.-.^ M ~ K.^.^.^.^.^.^.^.^.^.^.^.^.^.",
"^.^.^.^.^.^.^.^.^.^.^.^.r o s k I F.^.^.^.^.^.^.^.^.^.^.^.^.^.^.",
"^.^.^.^.^.^.^.^.^.^.^.^.Y.h d : 0.^.^.^.^.^.^.^.^.^.^.^.^.^.^.^.",
"^.^.^.^.^.^.^.^.^.g.( p.@.g 7 X n.^.^.^.^.^.^.^.^.^.^.^.^.^.^.^.",
"^.^.^.^.^.^.^.^.^.D B ..+.| n.A.^.^.^.^.^.^.^.^.^.^.^.^.^.^.^.^.",
"^.^.^.^.^.^.^.^.^.)  .O.q ,.^.^.^.^.^.^.^.^.^.^.^.^.^.^.^.^.^.^.",
"^.^.^.^.^.^.^.^.^.#.O.a f i.^.^.^.^.^.^.^.^.^.^.^.^.^.^.^.^.^.^.",
"^.^.^.^.^.^.^.Q.k.X.j a.N.^.^.^.^.^.^.^.^.^.^.^.^.^.^.^.^.^.^.^.",
"^.^.^.^.^.^.L.8.3.7.B.^.^.^.^.^.^.^.^.^.^.^.^.^.^.^.^.^.^.^.^.^.",
"^.^.^.Q.n.s.<.9.4.R.^.^.^.^.^.^.^.^.^.^.^.^.^.^.^.^.^.^.^.^.^.^.",
"^.^.n.6.Q [ 5.2.j.^.^.^.^.^.^.^.^.^.^.^.^.^.^.^.^.^.^.^.^.^.^.^.",
"q.>.i y ` } { 1.R.^.^.^.^.^.^.^.^.^.^.^.^.^.^.^.^.^.^.^.^.^.^.^.",
"W w 5 F ] ' E y.^.^.^.^.^.^.^.^.^.^.^.^.^.^.^.^.^.^.^.^.^.^.^.^.",
"0 & 4 K J 9 &.Y.^.^.^.^.^.^.^.^.^.^.^.^.^.^.^.^.^.^.^.^.^.^.^.^.",
"* @ 3 G 2 t x.^.^.^.^.^.^.^.^.^.^.^.^.^.^.^.^.^.^.^.^.^.^.^.^.^.",
"$ , < 1 8 =.S.^.^.^.^.^.^.^.^.^.^.^.^.^.^.^.^.^.^.^.^.^.^.^.^.^.",
"% + $ 6 %.l.^.^.^.^.^.^.^.^.^.^.^.^.^.^.^.^.^.^.^.^.^.^.^.^.^.^."
};
